:SAMPLES-PER-SECOND 30
:FRAME-RANGE 1-744
:FULLY-SPECIFIED
:DEGREES
512
root  -77.7386 37.5569 91.8689 174.122 -48.1712 -173.547
RightUpLeg  -6.74646 -1.83363 10.719
RightLeg  20.51 2.91535 2.15033
RightFoot  -12.6095 -0.190115 -9.47575
RightToes  -5.28216e-011 1.2921e-014 -6.02303e-014
Spine  -5.04612 -0.928871 8.69468
Spine1  8.33747 -0.677488 -1.27564
HEad  21.9322 -22.5189 0.658672
LeftShoulder1  1.0364 -0.387263 -21.9722
LeftArm  -3.54938 17.6767 -51.8677
LeftForeArm  39.6494 3.87489 -12.9084
LeftHand  -0.0339094 4.87489 1.22888
RightShoulder  1.83439 2.7419 24.2322
RightArm  -21.0178 20.9797 57.7668
RightForeArm  60.4802 -4.03275 4.10489
RightHand  -0.156932 -4.41059 -17.2988
LeftUpLeg  -25.736 -3.92551 9.2356
LeftLeg  47.3722 7.31638 8.83925
LeftFoot  -4.11218 0.473205 -7.09553
LeftToes  -9.4837e-011 -7.11147e-011 -1.07582e-011
513
root  -78.6344 37.5966 91.2044 175.278 -46.3607 -174.783
RightUpLeg  -4.75719 -1.58471 9.81644
RightLeg  20.2882 5.22284 2.52292
RightFoot  -14.1853 -0.317006 -8.89619
RightToes  -5.28216e-011 1.2921e-014 -6.02303e-014
Spine  -5.26701 -0.617131 7.87765
Spine1  8.12234 -0.456779 -1.51916
HEad  21.8235 -22.2709 0.287519
LeftShoulder1  0.965675 -0.111243 -22.1803
LeftArm  -2.96972 18.6375 -52.2299
LeftForeArm  40.3501 3.45465 -13.1448
LeftHand  -0.0275552 4.18489 0.502695
RightShoulder  1.90272 3.0776 23.6866
RightArm  -18.6542 23.1661 58.6168
RightForeArm  58.5854 -1.18438 5.53938
RightHand  -0.199045 -4.10574 -17.0439
LeftUpLeg  -26.6786 -5.27844 9.22535
LeftLeg  38.3097 8.44459 7.45162
LeftFoot  -3.24165 0.531167 -7.22229
LeftToes  -9.4837e-011 -7.11147e-011 -1.07582e-011
514
root  -79.528 37.6028 90.5073 176.201 -45.0424 -175.654
RightUpLeg  -2.85568 -0.764069 9.21656
RightLeg  19.9381 6.00483 2.36028
RightFoot  -15.594 -0.436648 -8.90632
RightToes  -5.28216e-011 1.2921e-014 -6.02303e-014
Spine  -5.81842 -0.434551 7.37745
Spine1  8.38167 -0.246755 -2.22767
HEad  21.7243 -22.2089 0.59223
LeftShoulder1  0.911682 0.0699685 -22.0882
LeftArm  -3.32588 19.2635 -52.7388
LeftForeArm  40.3091 3.20995 -13.0677
LeftHand  -0.0300879 4.72719 0.91591
RightShoulder  1.89593 3.11064 23.4124
RightArm  -16.9785 25.2088 59.3468
RightForeArm  57.1453 0.709321 6.41316
RightHand  -0.26574 -3.63116 -16.914
LeftUpLeg  -26.9306 -6.4881 9.48506
LeftLeg  28.1691 8.96285 5.49809
LeftFoot  -1.13617 0.686547 -7.60612
LeftToes  -9.4837e-011 -7.11147e-011 -1.07582e-011
515
root  -80.4366 37.5768 89.7788 177.055 -43.8505 -176.5
RightUpLeg  -0.839189 -0.117946 8.35765
RightLeg  19.5741 7.72512 2.74595
RightFoot  -17.2035 -0.542714 -8.31446
RightToes  -5.28216e-011 1.2921e-014 -6.02303e-014
Spine  -6.33553 -0.3094 6.46619
Spine1  8.55381 -0.158647 -2.39067
HEad  21.6031 -22.1933 0.278849
LeftShoulder1  0.905898 0.118539 -22.3511
LeftArm  -3.55147 19.9353 -52.605
LeftForeArm  40.619 2.91869 -12.9857
LeftHand  -0.0575824 3.8696 2.98304
RightShoulder  1.94731 3.41814 22.7965
RightArm  -14.6649 25.9438 59.3189
RightForeArm  55.1748 3.22698 7.89232
RightHand  -0.211638 -3.95076 -16.2176
LeftUpLeg  -26.3531 -6.77212 9.43124
LeftLeg  17.5732 8.79535 3.42483
LeftFoot  0.0854589 0.833448 -8.32686
LeftToes  -9.4837e-011 -7.11147e-011 -1.07582e-011
516
root  -81.3586 37.5443 88.9979 177.531 -42.9358 -177.041
RightUpLeg  1.35431 -0.380568 7.90757
RightLeg  18.8307 5.91338 1.93936
RightFoot  -17.5164 -0.66985 -10.1962
RightToes  -5.28216e-011 1.2921e-014 -6.02303e-014
Spine  -6.96429 -0.310799 5.68828
Spine1  9.01107 -0.117897 -2.63599
HEad  21.8443 -22.4347 0.0639961
LeftShoulder1  0.876146 0.232918 -22.4458
LeftArm  -3.44648 20.2776 -52.4081
LeftForeArm  39.2665 2.49007 -13.0225
LeftHand  -0.06165 4.13861 3.95548
RightShoulder  1.94081 3.43079 22.6362
RightArm  -13.5519 26.6428 59.5304
RightForeArm  55.1019 3.90958 8.4317
RightHand  -0.212989 -3.92686 -16.058
LeftUpLeg  -24.6717 -0.898414 6.25074
LeftLeg  6.89188 2.13859 2.64225
LeftFoot  -1.06493 0.864636 -9.52994
LeftToes  -9.4837e-011 -7.11147e-011 -1.07582e-011
517
root  -82.3064 37.447 88.192 178.119 -42.1454 -177.89
RightUpLeg  3.64266 0.72488 7.23248
RightLeg  18.4568 5.54106 1.69034
RightFoot  -18.9042 -0.788966 -9.97694
RightToes  -5.28216e-011 1.2921e-014 -6.02303e-014
Spine  -7.53725 -0.385217 4.88312
Spine1  9.45995 0.0606937 -3.46766
HEad  22.2425 -22.5714 0.0883117
LeftShoulder1  0.846737 0.3166 -22.2486
LeftArm  -3.44304 20.3837 -52.1319
LeftForeArm  38.6436 2.48695 -13.0072
LeftHand  -0.0504056 4.60236 4.34631
RightShoulder  1.89779 3.19803 23.0233
RightArm  -13.0435 27.1114 59.5448
RightForeArm  55.718 3.12189 8.53381
RightHand  -0.220984 -3.87272 -16.1092
LeftUpLeg  -23.0737 0.490671 4.44077
LeftLeg  -1.42831 0.286716 2.97117
LeftFoot  -3.9271 0.785599 -11.7311
LeftToes  -9.4837e-011 -7.11147e-011 -1.07582e-011
